<svg width="102" height="102" viewBox="0 0 102 102" fill="none" xmlns="http://www.w3.org/2000/svg">
<g id="cookies-svgrepo-com 1" clip-path="url(#clip0_1_3)">
<g id="cookie">
<path id="Vector" d="M95.5518 49.478L90.7026 50.4478C89.089 50.7705 87.4671 49.9312 86.7988 48.4273L81.6045 36.7399C81.1649 35.7504 80.2939 35.0189 79.2436 34.7561L76.5376 34.0798C74.9717 33.6883 73.8734 32.2816 73.8734 30.6675V11.9139C73.8734 11.0375 73.5461 10.1926 72.9558 9.54477L66.4227 2.37568C60.5324 0.510398 54.1829 -0.321739 47.5815 0.112957C22.21 1.7844 1.65685 22.4235 0.108718 47.8025C-1.6976 77.418 21.7859 102 51.0111 102C78.8864 102 101.524 79.6327 101.989 51.8684L97.8148 49.7812C97.1151 49.4312 96.3188 49.3246 95.5518 49.478Z" fill="#FFE6A1"/>
<g id="Group">
<path id="Vector_2" d="M66.8385 86.1723C66.5289 86.1723 66.2239 86.1545 65.9157 86.149C63.9833 88.3167 61.1779 89.6895 58.0454 89.6895C53.4315 89.6895 49.5196 86.7231 48.0859 82.5977C41.7748 80.1001 36.0823 76.3843 31.2983 71.7329C30.5745 71.951 29.8229 72.1032 29.028 72.1032C24.6573 72.1032 21.1142 68.5601 21.1142 64.1895C21.1142 62.6631 21.5669 61.2504 22.3155 60.0416C22.2619 59.9457 22.2048 59.8527 22.1516 59.7565C16.6621 59.3843 12.3213 54.8252 12.3213 49.2413C12.3213 45.9504 13.8286 43.0129 16.1895 41.0777C15.9658 39.1391 15.8385 37.1712 15.8385 35.1723C15.8385 25.1418 18.7459 15.7959 23.7469 7.90839C9.48563 16.9505 0.0109863 32.8639 0.0109863 51C0.0109863 79.1665 22.8444 102 51.011 102C69.1471 102 85.0603 92.5254 94.1026 78.2641C86.2151 83.2651 76.8692 86.1723 66.8385 86.1723Z" fill="#FFD796"/>
<path id="Vector_3" d="M39.58 42.2069C42.0082 42.2069 43.9766 40.2385 43.9766 37.8103C43.9766 35.3822 42.0082 33.4138 39.58 33.4138C37.1519 33.4138 35.1835 35.3822 35.1835 37.8103C35.1835 40.2385 37.1519 42.2069 39.58 42.2069Z" fill="#FFD796"/>
<path id="Vector_4" d="M86.1834 71.2241C88.6116 71.2241 90.58 69.2557 90.58 66.8275C90.58 64.3994 88.6116 62.431 86.1834 62.431C83.7553 62.431 81.7869 64.3994 81.7869 66.8275C81.7869 69.2557 83.7553 71.2241 86.1834 71.2241Z" fill="#FFD796"/>
<path id="Vector_5" d="M46.1748 71.2241C47.8744 71.2241 49.2523 69.8462 49.2523 68.1466C49.2523 66.4469 47.8744 65.069 46.1748 65.069C44.4751 65.069 43.0972 66.4469 43.0972 68.1466C43.0972 69.8462 44.4751 71.2241 46.1748 71.2241Z" fill="#FFD796"/>
<path id="Vector_6" d="M69.9163 43.086C71.6159 43.086 72.9938 41.7082 72.9938 40.0085C72.9938 38.3088 71.6159 36.931 69.9163 36.931C68.2166 36.931 66.8387 38.3088 66.8387 40.0085C66.8387 41.7082 68.2166 43.086 69.9163 43.086Z" fill="#FFD796"/>
<path id="Vector_7" d="M57.6059 15.8275C59.3056 15.8275 60.6834 14.4497 60.6834 12.75C60.6834 11.0503 59.3056 9.67247 57.6059 9.67247C55.9062 9.67247 54.5284 11.0503 54.5284 12.75C54.5284 14.4497 55.9062 15.8275 57.6059 15.8275Z" fill="#FFD796"/>
</g>
<g id="Group_2">
<path id="Vector_8" d="M48.4518 45.2996L46.4188 48.6881C45.2035 50.7133 46.2905 53.337 48.5817 53.9098L54.6332 55.4227C56.5178 55.8938 58.4275 54.7481 58.8984 52.8635L59.5907 50.0944C59.7308 49.5342 59.7308 48.9484 59.5907 48.3882L58.8588 45.4603C58.4036 43.6389 56.5978 42.4962 54.7569 42.8643L50.7781 43.66C49.8063 43.8546 48.9618 44.4499 48.4518 45.2996Z" fill="#B97850"/>
<path id="Vector_9" d="M58.6026 67.0716L56.4823 70.6053C55.4283 72.3622 56.0928 74.6447 57.9253 75.5609L64.6752 78.9359C66.6877 79.9423 69.1146 78.8259 69.6604 76.643L70.3557 73.862L71.1683 70.6109C71.6741 68.5876 70.3183 66.5709 68.2534 66.2759L62.1156 65.3989C60.7151 65.1989 59.3305 65.8581 58.6026 67.0716Z" fill="#B97850"/>
<path id="Vector_10" d="M21.5979 46.0908L19.0102 50.4037C18.1799 51.7877 18.398 53.5592 19.5392 54.7005L23.6116 58.7731C25.094 60.2555 27.5356 60.1202 28.8453 58.4832L32.3366 54.119C33.0223 53.2619 33.2685 52.1337 33.0022 51.0687L32.2059 47.8836C31.8762 46.5648 30.8163 45.5543 29.4836 45.2876L25.3036 44.4517C23.8461 44.16 22.3627 44.8162 21.5979 46.0908Z" fill="#B97850"/>
<path id="Vector_11" d="M35.9174 17.535L33.922 20.8608C32.7643 22.7902 33.6911 25.2956 35.8257 26.0072L40.1557 27.4506C41.4196 27.8717 42.8129 27.5428 43.755 26.6009L46.0857 24.2702C46.9592 23.3966 47.3105 22.1286 47.0108 20.9301L46.4012 18.4919C46.0098 16.9258 44.6029 15.8273 42.9888 15.8273H38.9331C37.698 15.8275 36.5531 16.4758 35.9174 17.535Z" fill="#B97850"/>
<path id="Vector_12" d="M78.3958 44.7186L76.36 46.7544C74.9865 48.1279 74.9865 50.3549 76.36 51.7285L77.3562 52.7248C78.4269 53.7954 80.062 54.0608 81.4163 53.3837L87.1771 50.5033C88.6516 49.766 89.4164 48.1038 89.0165 46.5044L88.7555 45.4607C88.3003 43.6393 86.4946 42.4965 84.6536 42.8647L80.1933 43.7568C79.5122 43.8927 78.8868 44.2276 78.3958 44.7186Z" fill="#B97850"/>
<path id="Vector_13" d="M65.3177 19.6143L62.9818 22.7289C62.1238 23.8728 62.0439 25.4227 62.7796 26.6489L64.9409 30.251C65.9741 31.973 68.237 32.4818 69.9079 31.368L74.2966 28.4421C75.9769 27.322 76.3709 25.0205 75.1595 23.4052L72.7736 20.2241C72.3443 19.6517 71.7508 19.2238 71.0721 18.9977L69.2437 18.3881C67.8073 17.909 66.2259 18.403 65.3177 19.6143Z" fill="#B97850"/>
<path id="Vector_14" d="M35.2197 75.1822L32.9231 78.0529C31.4487 79.8959 32.1721 82.6391 34.3635 83.5159L37.4484 84.7499C38.2871 85.0853 39.2224 85.0853 40.0609 84.7499L43.5229 83.3649C45.5972 82.5353 46.3825 80.0071 45.1434 78.1481L44.5487 77.2562C44.2091 76.7468 43.7427 76.3353 43.1952 76.0613L39.5396 74.2335C38.0556 73.4918 36.2556 73.8873 35.2197 75.1822Z" fill="#B97850"/>
</g>
<g id="Group_3">
<path id="Vector_15" d="M27.9759 58.3554L23.9035 54.2829C22.7623 53.1418 22.544 51.3702 23.3745 49.9864L25.9622 45.6735C26.1829 45.3057 26.4746 45.0071 26.7971 44.7505L25.3038 44.4521C23.8463 44.1606 22.3627 44.8169 21.5979 46.0913L19.0102 50.4041C18.1799 51.7881 18.398 53.5596 19.5392 54.7009L23.6116 58.7733C24.9856 60.1473 27.1726 60.1143 28.5293 58.801C28.3349 58.6721 28.1476 58.5273 27.9759 58.3554Z" fill="#A5694B"/>
<path id="Vector_16" d="M43.6783 26.1985L39.3483 24.7553C37.2138 24.0437 36.2867 21.5383 37.4445 19.6089L39.4399 16.2831C39.5413 16.1138 39.6754 15.9746 39.8011 15.8275H38.9329C37.6975 15.8275 36.5526 16.4758 35.9169 17.5352L33.9216 20.8608C32.7637 22.7902 33.6905 25.2956 35.8253 26.0072L40.1553 27.4506C41.4192 27.8717 42.8125 27.5428 43.7546 26.6009L44.0823 26.2732C43.9476 26.2453 43.811 26.2427 43.6783 26.1985Z" fill="#A5694B"/>
<path id="Vector_17" d="M57.9703 54.4114L51.9188 52.8985C49.6274 52.3256 48.5404 49.7021 49.7559 47.6768L51.7889 44.2883C52.031 43.8849 52.3525 43.5444 52.7232 43.2713L50.7781 43.6604C49.8065 43.8546 48.9616 44.4501 48.4518 45.2999L46.4188 48.6885C45.2035 50.7137 46.2905 53.3374 48.5817 53.9102L54.6332 55.423C55.908 55.7418 57.183 55.3091 58.0274 54.42C58.0083 54.4152 57.9894 54.4162 57.9703 54.4114Z" fill="#A5694B"/>
<path id="Vector_18" d="M68.2263 29.9468L66.0649 26.3447C65.3292 25.1185 65.4091 23.569 66.2672 22.4247L68.603 19.3103C68.8588 18.969 69.1763 18.7017 69.5206 18.4799L69.2435 18.3877C67.8071 17.909 66.2257 18.403 65.3173 19.6141L62.9816 22.7285C62.1236 23.8726 62.0437 25.4223 62.7794 26.6485L64.9408 30.2506C65.9705 31.9668 68.2211 32.4758 69.8901 31.3768C69.2214 31.0985 68.6293 30.6183 68.2263 29.9468Z" fill="#A5694B"/>
<path id="Vector_19" d="M80.179 52.4906C78.8054 51.1169 78.8054 48.8901 80.179 47.5165L82.2148 45.4806C82.7057 44.9898 83.331 44.6549 84.0121 44.5188L87.7664 43.768C86.9632 43.0046 85.8163 42.6318 84.6534 42.8645L80.1931 43.7566C79.5122 43.8929 78.8868 44.2276 78.3958 44.7184L76.36 46.7543C74.9865 48.1279 74.9865 50.3547 76.36 51.7283L77.3562 52.7246C78.3605 53.7289 79.8547 53.9921 81.1544 53.4663L80.179 52.4906Z" fill="#A5694B"/>
<path id="Vector_20" d="M62.2824 75.2658C60.4499 74.3496 59.7852 72.0672 60.8394 70.3103L62.9597 66.7767C63.2378 66.3135 63.6309 65.9623 64.0644 65.6776L62.116 65.3993C60.7151 65.1991 59.3307 65.8581 58.6028 67.0716L56.4825 70.6053C55.4284 72.3622 56.093 74.6447 57.9254 75.5609L64.6754 78.9358C66.0207 79.6086 67.5389 79.3182 68.5687 78.4093L62.2824 75.2658Z" fill="#A5694B"/>
<path id="Vector_21" d="M40.9656 84.1619L37.8807 82.928C35.6895 82.0516 34.9661 79.308 36.4403 77.465L38.7369 74.5943C38.8827 74.412 39.0465 74.2526 39.2194 74.1068C37.8038 73.5647 36.1829 73.9779 35.2197 75.1822L32.9231 78.0529C31.4487 79.8959 32.1721 82.6391 34.3635 83.5159L37.4484 84.7498C38.2871 85.0853 39.2224 85.0853 40.0609 84.7498L41.2915 84.2576C41.1825 84.2259 41.0716 84.2044 40.9656 84.1619Z" fill="#A5694B"/>
</g>
<path id="Vector_22" d="M14.0778 72.1016C13.8142 72.1016 13.5453 72.0417 13.2931 71.9162C12.4241 71.4817 12.0719 70.4256 12.5065 69.5566L14.2653 66.0394C14.6999 65.1704 15.7534 64.8218 16.6248 65.2529C17.4938 65.6876 17.846 66.7435 17.4113 67.6124L15.6526 71.1297C15.3444 71.746 14.7237 72.1016 14.0778 72.1016Z" fill="#C98850"/>
<path id="Vector_23" d="M45.7351 94.9654H43.9764C43.0052 94.9654 42.2177 94.1789 42.2177 93.2067C42.2177 92.2347 43.0052 91.448 43.9764 91.448H45.7351C46.7063 91.448 47.4938 92.2345 47.4938 93.2067C47.4938 94.1789 46.7063 94.9654 45.7351 94.9654Z" fill="#925F4A"/>
<path id="Vector_24" d="M38.6988 61.5516C38.4353 61.5516 38.1663 61.4917 37.9141 61.3661C37.0451 60.9315 36.6929 59.8754 37.1276 59.0066L38.8863 55.4894C39.32 54.6222 40.3737 54.2718 41.2458 54.7029C42.1148 55.1376 42.467 56.1934 42.0323 57.0624L40.2736 60.5796C39.9655 61.1962 39.3445 61.5516 38.6988 61.5516Z" fill="#C98850"/>
<g id="Group_4">
<path id="Vector_25" d="M28.1472 33.4138C27.8837 33.4138 27.6147 33.3538 27.3625 33.2283L23.8453 31.4696C22.9763 31.0349 22.6241 29.979 23.0588 29.11C23.4925 28.2428 24.547 27.8906 25.4183 28.3235L28.9355 30.082C29.8045 30.5167 30.1568 31.5726 29.7221 32.4416C29.4139 33.0582 28.7929 33.4138 28.1472 33.4138Z" fill="#925F4A"/>
<path id="Vector_26" d="M49.2525 8.79292H45.7353C44.7641 8.79292 43.9766 8.0064 43.9766 7.03422C43.9766 6.06203 44.7641 5.27551 45.7353 5.27551H49.2525C50.2237 5.27551 51.0112 6.06203 51.0112 7.03422C51.0112 8.0064 50.2237 8.79292 49.2525 8.79292Z" fill="#925F4A"/>
</g>
<path id="Vector_27" d="M56.2886 35.1723C55.6428 35.1723 55.022 34.8169 54.7138 34.2003L52.9551 30.6831C52.5204 29.8141 52.8726 28.7578 53.7416 28.3235C54.6124 27.8906 55.6677 28.2428 56.1012 29.11L57.8599 32.6272C58.2946 33.4962 57.9423 34.5525 57.0733 34.9868C56.8207 35.1123 56.5522 35.1723 56.2886 35.1723Z" fill="#C98850"/>
<g id="Group_5">
<path id="Vector_28" d="M8.02575 43.7837C7.78928 43.6672 7.57472 43.4944 7.40359 43.2703C6.8159 42.4965 6.9671 41.3935 7.74107 40.806L10.8732 38.4281C11.6464 37.8402 12.7486 37.9928 13.3375 38.7656C13.9252 39.5393 13.774 40.6424 13 41.2299L9.86813 43.6076C9.31888 44.0244 8.60488 44.069 8.02575 43.7837Z" fill="#925F4A"/>
<path id="Vector_29" d="M73.8731 63.3103C73.4231 63.3103 72.9731 63.1386 72.6298 62.7951L69.1126 59.2779C68.4257 58.591 68.4257 57.478 69.1126 56.7911C69.7995 56.1042 70.9125 56.1042 71.5994 56.7911L75.1166 60.3083C75.8036 60.9952 75.8036 62.1082 75.1166 62.7951C74.773 63.1386 74.323 63.3103 73.8731 63.3103Z" fill="#925F4A"/>
</g>
<path id="Vector_30" d="M77.3903 80.8966C76.9402 80.8966 76.4902 80.7248 76.147 80.3814C75.46 79.6945 75.46 78.5814 76.147 77.8945L77.9057 76.1358C78.5926 75.4489 79.7056 75.4489 80.3925 76.1358C81.0794 76.8227 81.0794 77.9358 80.3925 78.6227L78.6338 80.3814C78.2902 80.7248 77.8403 80.8966 77.3903 80.8966Z" fill="#C98850"/>
</g>
<g id="crumbs">
<g id="Group_6">
<path id="Vector_31" d="M80.9075 7.03441V11.4714C80.9075 12.7157 82.164 13.5664 83.3193 13.1042L88.5952 10.9939C89.2628 10.7267 89.7006 10.0801 89.7006 9.36109V7.03441C89.7006 6.06322 88.9131 5.27571 87.9419 5.27571H82.666C81.695 5.27571 80.9075 6.06322 80.9075 7.03441Z" fill="#FFE6A1"/>
<path id="Vector_32" d="M84.6674 20.8988L83.5452 28.7548C83.2812 30.6028 84.507 32.3352 86.3372 32.7012L89.558 33.3452C90.9557 33.6249 92.3837 33.0333 93.1744 31.8473L94.3857 30.0304C95.013 29.0891 95.1497 27.9036 94.7524 26.8445L91.0834 17.0607C90.627 15.8439 89.0661 15.5058 88.1471 16.4248L85.6625 18.9092C85.1242 19.4473 84.7752 20.1456 84.6674 20.8988Z" fill="#FFE6A1"/>
</g>
<g id="Group_7">
<path id="Vector_33" d="M93.484 30.2213L90.2632 29.5772C88.4328 29.2111 87.2072 27.4786 87.4712 25.6309L88.5934 17.7751C88.6936 17.0744 89.0203 16.4346 89.4956 15.9138C89.0183 15.8897 88.5282 16.0433 88.1471 16.4242L85.6623 18.9089C85.1242 19.4469 84.7749 20.1452 84.6676 20.8985L83.5454 28.7542C83.2814 30.6024 84.5072 32.3346 86.3374 32.7006L89.5582 33.3446C90.9557 33.6239 92.3839 33.0327 93.1746 31.8467L94.2343 30.2574C93.9848 30.2623 93.7352 30.2717 93.484 30.2213Z" fill="#FFD796"/>
<path id="Vector_34" d="M86.8364 9.58681C85.6812 10.0488 84.4247 9.19813 84.4247 7.95401V5.27571H82.666C81.6948 5.27571 80.9073 6.06322 80.9073 7.03441V11.4714C80.9073 12.7157 82.1638 13.5664 83.319 13.1042L88.5949 10.9939C89.2625 10.7267 89.7004 10.0803 89.7004 9.36109V8.4413L86.8364 9.58681Z" fill="#FFD796"/>
<path id="Vector_35" d="M94.0946 38.3542L93.0551 40.4332C92.8076 40.9283 92.8076 41.511 93.0551 42.0061L93.5294 42.9551C94.0026 43.9012 95.1977 44.2188 96.0778 43.6321L98.9129 41.7421C99.4022 41.4158 99.696 40.8667 99.696 40.2788V38.3841C99.696 37.1838 98.52 36.3361 97.3813 36.7158L95.1112 37.4725C94.6689 37.6197 94.3032 37.9368 94.0946 38.3542Z" fill="#FFD796"/>
</g>
</g>
</g>
<defs>
<clipPath id="clip0_1_3">
<rect width="102" height="102" fill="white"/>
</clipPath>
</defs>
</svg>
